<?xml version="1.0" standalone="no"?><!DOCTYPE svg PUBLIC "-//W3C//DTD SVG 1.1//EN" "http://www.w3.org/Graphics/SVG/1.1/DTD/svg11.dtd"><svg t="1641346476708" class="icon" viewBox="0 0 1024 1024" version="1.1" xmlns="http://www.w3.org/2000/svg" p-id="957" xmlns:xlink="http://www.w3.org/1999/xlink" width="200" height="200"><defs><style type="text/css"/></defs><path d="M808.58680889 584.59932445V439.40067555l80.60928-80.60928a421.76056889 421.76056889 0 0 0-64.29809778-111.11992888l-109.95484444 29.4912-125.75630222-72.59932445-29.4912-110.10048a426.34808889 426.34808889 0 0 0-128.37774223 0l-29.4912 110.10048-125.75630222 72.59932445-109.95484445-29.4912c-26.94257778 33.49617778-48.71509333 70.99733333-64.37091555 111.11992888l80.60928 80.60928v145.1986489l-80.60928 80.60928c15.65582222 40.12259555 37.35552 77.55093333 64.37091555 111.11992888l109.95484445-29.4912 125.75630222 72.59932445 29.4912 110.10048a426.34808889 426.34808889 0 0 0 128.37774223 0l29.4912-110.10048 125.75630222-72.59932445 109.95484444 29.4912c26.94257778-33.49617778 48.71509333-70.99733333 64.29809778-111.11992888l-80.60928-80.60928z m45.21984 289.9603911l-126.55729778-33.93308444-63.06019556 36.40888889-33.93308444 126.70293333c-42.96248889 11.65084445-88.10951111 17.98599111-134.71288889 17.98599112-46.67619555 0-91.89603555-6.26232889-134.78570667-17.98599112l-34.00590222-126.70293333-63.06019555-36.40888889-126.48448 33.93308444A509.21472 509.21472 0 0 1 2.27555555 641.10592L94.97258667 548.40888889v-72.81777778L2.27555555 382.89408A509.21472 509.21472 0 0 1 137.20689778 149.36746667l126.48448 33.93308444 63.06019555-36.40888889 34.00590222-126.70293333A510.30698667 510.30698667 0 0 1 495.47036445 2.27555555c46.67619555 0 91.89603555 6.26232889 134.78570666 17.98599112l33.93308444 126.70293333 63.06019556 36.40888889 126.55729778-33.93308444c64.07964445 63.35146667 111.4112 143.52384 134.93134222 233.45379555L895.96814222 475.59111111v72.81777778l92.76984889 92.69703111a509.21472 509.21472 0 0 1-134.93134222 233.45379555zM495.54318222 643.072a131.072 131.072 0 1 0 0-262.144 131.072 131.072 0 0 0 0 262.144z m0 87.38133333a218.45333333 218.45333333 0 1 1 0-436.90666666 218.45333333 218.45333333 0 0 1 0 436.90666666z" p-id="958"/></svg>